<svg width="64" height="64" viewBox="0 0 64 64" xmlns="http://www.w3.org/2000/svg">
  <defs>
    <linearGradient id="g" x1="0%" y1="0%" x2="85%" y2="100%">
      <stop offset="0" stop-color="#318ea2"/>
      <stop offset="1" stop-color="#005480"/>
    </linearGradient>
  </defs>
  <rect width="64" height="64" rx="14.08" fill="url(#g)"/>
  <g transform="translate(9.600000000000001, 9.600000000000001) scale(0.9333333333333332)">
    <path d="M24 6 Q25.6 6 26.9 6.95 L40.4 17.4 Q42 18.65 42 20.7 L42 38 Q42 42 38 42 L10 42 Q6 42 6 38 L6 20.7 Q6 18.65 7.6 17.4 L21.1 6.95 Q22.4 6 24 6 Z" fill="white"/>
    <circle cx="24" cy="20.5" r="2.6" fill="#006e94"/>
    <path d="M18.5 42 L18.5 31 Q18.5 26 24 26 Q29.5 26 29.5 31 L29.5 42 Z" fill="#006e94"/>
  </g>
</svg>